<svg width="65" height="50" viewBox="0 0 65 50" fill="none" xmlns="http://www.w3.org/2000/svg">
<path d="M1.94108 47.8516H1.47196V43.1864H1.9476L4.51473 47.0697V43.1864H4.97734V47.8516H4.51473L1.94108 43.9683V47.8516ZM10.2738 45.519C10.2738 46.9329 9.3551 47.9297 8.05198 47.9297C6.74235 47.9297 5.83017 46.9329 5.83017 45.519C5.83017 44.1051 6.74887 43.1017 8.05198 43.1017C9.36161 43.1017 10.2738 44.0986 10.2738 45.519ZM9.79164 45.519C9.79164 44.3527 9.08144 43.5578 8.05198 43.5578C7.02252 43.5578 6.31884 44.3527 6.31884 45.519C6.31884 46.6853 7.02252 47.4802 8.05198 47.4802C9.08144 47.4802 9.79164 46.6788 9.79164 45.519ZM11.5936 43.1864V47.4215H13.7372V47.8516H11.1244V43.1864H11.5936ZM14.9086 43.1864V47.4215H17.0522V47.8516H14.4395V43.1864H14.9086ZM18.3907 45.9034L16.8074 43.1864H17.3352L18.4885 45.1997C18.5406 45.2975 18.5797 45.3756 18.6253 45.4799C18.6839 45.3626 18.6839 45.3626 18.7686 45.1997L19.9089 43.1864H20.4236L18.8599 45.9034V47.8516H18.3907V45.9034ZM21.9756 47.8516L20.5878 43.1864H21.0764L22.0212 46.3921C22.0863 46.6201 22.145 46.8547 22.2036 47.1609C22.2818 46.8221 22.347 46.6201 22.4186 46.3921L23.4351 43.1864H23.9237L24.9402 46.3921C25.0118 46.6266 25.077 46.8612 25.1487 47.1609C25.2203 46.8026 25.279 46.5745 25.3311 46.3986L26.2954 43.1864H26.771L25.3702 47.8516H24.9271L23.6761 43.8901L22.4251 47.8516H21.9756ZM31.4431 45.519C31.4431 46.9329 30.5244 47.9297 29.2213 47.9297C27.9116 47.9297 26.9994 46.9329 26.9994 45.519C26.9994 44.1051 27.9181 43.1017 29.2213 43.1017C30.5309 43.1017 31.4431 44.0986 31.4431 45.519ZM30.9609 45.519C30.9609 44.3527 30.2507 43.5578 29.2213 43.5578C28.1918 43.5578 27.4881 44.3527 27.4881 45.519C27.4881 46.6853 28.1918 47.4802 29.2213 47.4802C30.2507 47.4802 30.9609 46.6788 30.9609 45.519ZM36.4506 45.519C36.4506 46.9329 35.5319 47.9297 34.2288 47.9297C32.9192 47.9297 32.007 46.9329 32.007 45.519C32.007 44.1051 32.9257 43.1017 34.2288 43.1017C35.5385 43.1017 36.4506 44.0986 36.4506 45.519ZM35.9685 45.519C35.9685 44.3527 35.2583 43.5578 34.2288 43.5578C33.1994 43.5578 32.4957 44.3527 32.4957 45.519C32.4957 46.6853 33.1994 47.4802 34.2288 47.4802C35.2583 47.4802 35.9685 46.6788 35.9685 45.519ZM38.7217 47.8516H37.3013V43.1864H38.7086C40.116 43.1864 41.0543 44.1247 41.0543 45.519C41.0543 46.9133 40.1225 47.8516 38.7217 47.8516ZM38.6891 43.6164H37.7704V47.4215H38.7021C39.8424 47.4215 40.5721 46.6788 40.5721 45.519C40.5721 44.3527 39.8424 43.6164 38.6891 43.6164ZM43.7087 47.8516H43.2331L44.9467 43.1864H45.5265L47.2597 47.8516H46.771L46.3149 46.6136H44.1648L43.7087 47.8516ZM45.1747 43.8445L44.3081 46.2031H46.1651L45.292 43.8445C45.2724 43.7793 45.2399 43.7011 45.2333 43.6555C45.2268 43.6946 45.2008 43.7793 45.1747 43.8445ZM49.6262 47.9232C48.3231 47.9232 47.437 46.9524 47.437 45.519C47.437 44.0856 48.3361 43.1082 49.6523 43.1082C50.6557 43.1082 51.4441 43.7142 51.633 44.6394H51.1313C50.9359 43.9683 50.3625 43.5578 49.6327 43.5578C48.6098 43.5578 47.9257 44.3397 47.9257 45.519C47.9257 46.6918 48.6098 47.4737 49.6327 47.4737C50.369 47.4737 50.9554 47.0762 51.1574 46.4507H51.6591C51.4441 47.3303 50.6296 47.9232 49.6262 47.9232ZM51.7208 43.6164V43.1864H55.0633V43.6164H53.6234V47.8516H53.1542V43.6164H51.7208ZM59.6942 45.519C59.6942 46.9329 58.7755 47.9297 57.4724 47.9297C56.1628 47.9297 55.2506 46.9329 55.2506 45.519C55.2506 44.1051 56.1693 43.1017 57.4724 43.1017C58.782 43.1017 59.6942 44.0986 59.6942 45.519ZM59.2121 45.519C59.2121 44.3527 58.5019 43.5578 57.4724 43.5578C56.4429 43.5578 55.7393 44.3527 55.7393 45.519C55.7393 46.6853 56.4429 47.4802 57.4724 47.4802C58.5019 47.4802 59.2121 46.6788 59.2121 45.519ZM61.014 47.8516H60.5449V43.1864H62.2845C63.2293 43.1864 63.8026 43.7077 63.8026 44.5351C63.8026 45.2062 63.4508 45.6754 62.8514 45.8382L63.8483 47.8516H63.327L62.3757 45.9164H61.014V47.8516ZM61.014 43.6099V45.4929H62.2975C62.9426 45.4929 63.3205 45.1411 63.3205 44.5482C63.3205 43.9422 62.923 43.6099 62.2845 43.6099H61.014Z" fill="black"/>
<path fill-rule="evenodd" clip-rule="evenodd" d="M6.34798 36.6468C13.1868 24.7447 20.0427 12.8512 26.9155 0.966517C26.9515 0.933019 26.9943 0.911649 27.0438 0.902344C27.5424 1.16642 28.0238 1.4552 28.4877 1.76869C27.9508 2.70344 27.4053 3.63396 26.8513 4.56025C26.6905 4.89003 26.7654 5.15745 27.0759 5.36242L30.1562 7.15928C30.4341 7.23314 30.68 7.17969 30.8942 6.99885C31.4241 6.00249 32.0017 5.03988 32.6269 4.11103C33.0593 4.36471 33.4978 4.61069 33.9425 4.84903C34.0177 4.9689 34.007 5.0866 33.9104 5.20198C27.8683 15.6602 21.8252 26.1206 15.7813 36.5829C15.1182 36.6683 14.4551 36.6683 13.7919 36.5829C14.0542 36.1658 14.3001 35.7378 14.5299 35.2995C14.621 34.9183 14.4819 34.6507 14.1128 34.4973C13.1825 33.9788 12.2626 33.4442 11.3533 32.8929C10.984 32.6388 10.6737 32.6927 10.4228 33.0534L8.62596 36.1337C8.59409 36.2818 8.58343 36.4313 8.59385 36.5826C8.62863 36.5865 8.64996 36.6077 8.65791 36.6468C7.8789 36.7313 7.11013 36.7315 6.35158 36.6472L6.3478 36.6471L6.34797 36.6468L6.34766 36.6468L6.34798 36.6468ZM26.0493 7.80147C25.8003 7.61774 25.5223 7.54285 25.2151 7.57686C25.1321 7.69211 25.0358 7.79909 24.9263 7.89773C24.365 8.9136 23.7874 9.91894 23.1936 10.9139C23.0582 11.1788 23.0903 11.4248 23.2899 11.6519L26.4985 13.5129C26.8475 13.6191 27.1148 13.5229 27.3007 13.2241C27.8193 12.2938 28.3541 11.374 28.9051 10.4647C29.2348 10.0687 29.2028 9.7157 28.8088 9.40581C27.8785 8.88722 26.9586 8.35246 26.0493 7.80147ZM21.5568 13.9292C21.7589 13.9106 21.9514 13.9427 22.1344 14.0254C23.1293 14.6192 24.1347 15.1968 25.1505 15.7581C25.4611 15.9631 25.536 16.2305 25.3752 16.5603L23.5141 19.769C23.3052 19.8928 23.0806 19.9249 22.8403 19.8652C21.8453 19.2714 20.84 18.6939 19.8241 18.1326C19.4098 17.8828 19.3349 17.5513 19.5995 17.1379C20.1719 16.1857 20.7281 15.2231 21.268 14.25C21.3557 14.1306 21.452 14.0236 21.5568 13.9292ZM18.6691 20.5075C18.4388 20.3387 18.1821 20.2639 17.8991 20.2829C17.7459 20.4378 17.6068 20.6089 17.4819 20.7963C16.942 21.7694 16.3858 22.732 15.8134 23.6841C15.7208 23.9865 15.7956 24.2325 16.038 24.4221C17.0111 24.9621 17.9737 25.5183 18.9258 26.0906C19.4102 26.4428 19.7846 26.3465 20.0489 25.8019C20.5152 24.9297 21.0073 24.074 21.5249 23.2349C21.7245 22.964 21.7887 22.6645 21.7174 22.3365C20.7173 21.7026 19.7012 21.093 18.6691 20.5075ZM14.2409 26.6362C14.4739 26.6144 14.6878 26.668 14.8827 26.7967C15.8776 27.3905 16.883 27.968 17.8988 28.5294C18.1443 28.8265 18.1549 29.1371 17.9309 29.4599C17.4133 30.2993 16.9213 31.1547 16.4549 32.0268C16.2052 32.4414 15.8736 32.5158 15.4602 32.2514C14.5142 31.6694 13.5516 31.1136 12.5724 30.5829C12.217 30.3012 12.1636 29.9694 12.412 29.5882C12.9296 28.7488 13.4216 27.8935 13.888 27.0213C13.9752 26.8594 14.0929 26.731 14.2409 26.6362ZM37.408 6.93496C37.5241 6.93438 37.6313 6.96647 37.7289 7.03122L51.8471 15.1813C51.9023 15.2255 51.9446 15.279 51.9754 15.3417C49.9572 18.9402 47.8824 22.5018 45.7506 26.0266C44.9266 26.6464 44.0493 26.732 43.1195 26.2833C39.4718 24.1494 35.8139 22.0316 32.1457 19.9301C31.2812 19.178 31.0566 18.2689 31.4719 17.2028C33.4676 13.7889 35.4462 10.3663 37.408 6.93496ZM61.3441 23.2993L61.3447 23.2994L61.8597 22.3907L62.4357 21.3742C61.989 21.0436 61.5186 20.7441 61.0238 20.4757C60.4554 21.3994 59.9203 22.3405 59.4198 23.2988L59.4192 23.2987C59.2896 23.4075 59.1613 23.5145 59.0342 23.6195C59.0568 23.6162 59.0748 23.6223 59.0887 23.638C59.0749 23.6226 59.0569 23.6165 59.0345 23.6198C58.8015 23.6417 58.5878 23.5881 58.3927 23.4594C57.4404 22.887 56.4778 22.3309 55.5049 21.7909C55.2572 21.6274 55.1609 21.4028 55.2161 21.1171C55.7725 20.1235 56.3392 19.1395 56.9167 18.1651C56.438 17.8504 55.9458 17.5509 55.4407 17.2666C51.702 23.6965 47.98 30.1352 44.2747 36.5826C44.24 36.5864 44.2182 36.6076 44.2105 36.6468C47.3597 36.732 50.4987 36.7321 53.6275 36.6472L53.6439 36.6471C55.1903 33.9566 56.7372 31.265 58.2845 28.5725L58.2869 28.5684L60.0613 25.4809C59.9265 25.4089 59.8057 25.3204 59.6988 25.2154C59.8056 25.3203 59.9263 25.4087 60.061 25.4806C60.512 24.7716 60.9399 24.0445 61.3441 23.2993ZM59.0617 23.7618L59.0617 23.7617L59.0377 23.7497L58.9705 23.716L58.9703 23.7161L59.0617 23.7618ZM59.92 23.2279C59.9342 23.269 59.9384 23.314 59.9326 23.3628L59.933 23.3627C59.9387 23.3139 59.9343 23.2689 59.92 23.2279ZM29.9638 23.877C30.3403 24.0757 30.7039 24.2896 31.0548 24.5187C30.906 24.5672 30.7349 24.61 30.5414 24.6471C30.54 24.6722 30.5406 24.6969 30.5432 24.7211C30.5406 24.697 30.54 24.6724 30.5414 24.6474C30.7349 24.6103 30.906 24.5675 31.0548 24.519C34.2831 26.3686 37.5132 28.2189 40.745 30.07C41.7814 30.6104 42.1767 31.4555 41.9322 32.6049C41.2501 33.9718 40.5121 35.3092 39.7182 36.6157C33.2367 36.6587 26.7552 36.6587 20.2736 36.6157C21.2451 34.9613 22.2077 33.3037 23.1614 31.6423C23.3998 31.6538 23.6352 31.6327 23.8673 31.5781C24.1399 31.4446 24.3859 31.2733 24.6053 31.0647C24.6435 30.8196 24.6755 30.5738 24.7016 30.3267C24.703 30.2837 24.7015 30.2416 24.697 30.2003C24.7014 30.2415 24.703 30.2836 24.7015 30.3265C24.6755 30.5736 24.6434 30.8194 24.6053 31.0645C24.3859 31.2731 24.1398 31.4444 23.8673 31.5779C23.6351 31.6325 23.3998 31.6536 23.1614 31.6421C23.2664 31.4098 23.3948 31.1961 23.5464 31.0004C23.5457 31.0238 23.5479 31.0458 23.5529 31.0664C23.5479 31.0458 23.5457 31.0239 23.5465 31.0005C23.5939 31.0089 23.6367 30.998 23.6748 30.9685C23.8063 30.8023 23.9453 30.6418 24.0919 30.4872C24.2359 30.1913 24.3535 29.8486 24.4449 29.4604C24.5026 29.2749 24.5882 29.1036 24.7016 28.947C24.8491 28.895 25.0095 28.8308 25.1829 28.7545L25.8567 29.4283C26.0385 29.4174 26.1348 29.3211 26.1455 29.1395L26.1454 29.1394C26.1346 29.3208 26.0383 29.4169 25.8566 29.4279L25.1828 28.754C25.0094 28.8304 24.849 28.8946 24.7015 28.9465C25.5567 27.536 26.3803 26.1028 27.1722 24.6469C27.2695 24.5352 27.3658 24.4283 27.461 24.326C27.4234 24.4762 27.3592 24.6153 27.2684 24.7432L27.2688 24.7432C27.3594 24.6154 27.4235 24.4765 27.4611 24.3265C28.1826 23.576 29.0169 23.4263 29.9638 23.8773C29.9788 23.9096 29.9878 23.9392 29.9909 23.9662C29.9879 23.9392 29.9788 23.9094 29.9638 23.877ZM23.5464 31.0004C23.8208 30.4703 24.1202 29.9569 24.4448 29.4602C24.3535 29.8484 24.2358 30.1911 24.0919 30.487C23.9452 30.6416 23.8062 30.8021 23.6748 30.9683C23.6366 30.9978 23.5938 31.0087 23.5464 31.0004ZM30.0922 25.3851C30.1875 25.1381 30.3586 24.9777 30.6054 24.9038L30.6056 24.904C30.3587 24.9779 30.1875 25.1383 30.0922 25.3853C29.9818 25.4328 29.8749 25.4862 29.7715 25.5457L29.7713 25.5455C29.8748 25.486 29.9817 25.4325 30.0922 25.3851ZM29.9317 26.3156L30.2204 26.0269L30.2205 26.0271L29.9318 26.3159C29.4816 25.855 29.0217 25.4058 28.552 24.9682C28.529 24.9308 28.5116 24.8923 28.4998 24.8526C28.5116 24.8922 28.529 24.9306 28.552 24.9679C29.0217 25.4055 29.4816 25.8548 29.9317 26.3156ZM28.873 24.3264C28.8868 24.3561 28.8953 24.3857 28.8984 24.4152C28.8952 24.3857 28.8868 24.3562 28.8729 24.3265L28.873 24.3264ZM25.7284 28.1127C25.6653 28.2397 25.5798 28.3467 25.4718 28.4335L25.4716 28.4332C25.5795 28.3464 25.6651 28.2394 25.7282 28.1124L25.7284 28.1127ZM25.8567 28.0165C25.7379 27.9735 25.6854 27.9829 25.6991 28.0446C25.685 27.9825 25.7376 27.973 25.8566 28.016L26.124 28.2834L26.6588 28.8182C26.7211 28.7028 26.796 28.5956 26.8832 28.4975L26.8835 28.4978C26.7962 28.596 26.7213 28.7031 26.6589 28.8186L26.1241 28.2838L25.8567 28.0165ZM26.7872 27.7919C26.7074 27.9339 26.6813 28.0691 26.7088 28.1973C26.6811 28.0689 26.7073 27.9336 26.7871 27.7914C26.8588 27.8956 26.9551 27.9598 27.0759 27.9839C27.1545 27.9847 27.1909 27.9712 27.185 27.9436C27.1913 27.9715 27.155 27.9851 27.076 27.9844C26.9552 27.9603 26.8589 27.8961 26.7872 27.7919ZM28.1028 27.0218C28.0378 27.5871 27.7171 27.8759 27.1406 27.8881L27.1401 27.8877C27.7167 27.8756 28.0375 27.587 28.1027 27.0218L28.1028 27.0218ZM27.8461 26.7009L27.2047 27.4065L27.2043 27.4064L27.8459 26.7006L27.8461 26.7009ZM28.167 26.733C27.989 26.635 27.8182 26.5496 27.6544 26.4767L27.6535 26.4759C27.8175 26.5489 27.9886 26.6344 28.1669 26.7326C28.7796 26.8151 29.1218 26.5479 29.1936 25.9308L29.1938 25.9308C29.1221 26.5482 28.7798 26.8156 28.167 26.733ZM28.9371 25.61L28.2956 26.3155L28.2952 26.3154L28.9369 25.6096L28.9371 25.61ZM27.5894 25.257L27.5909 25.2569C27.6624 25.273 27.726 25.305 27.7818 25.3528L27.7816 25.353C27.7255 25.3049 27.6614 25.2729 27.5894 25.257ZM27.5252 24.904C27.468 25.0697 27.4466 25.2407 27.461 25.417L27.461 25.417C27.4465 25.2406 27.4678 25.0696 27.5251 24.9038L27.5252 24.904ZM54.1573 24.0374C53.9872 24.0055 53.8165 23.9948 53.6439 24.0054C53.5675 24.0608 53.4931 24.125 53.4193 24.1979C52.8314 25.2884 52.2109 26.358 51.5582 27.4066C51.4575 27.7295 51.5537 27.9756 51.847 28.1446C52.8199 28.6843 53.7825 29.2406 54.7348 29.8131C55.1898 30.0884 55.5428 29.9921 55.7937 29.5243C56.3334 28.5514 56.8898 27.5886 57.4622 26.6365C57.613 26.3639 57.5809 26.1179 57.3659 25.8985L54.1573 24.0374ZM49.9857 30.3584C50.2931 30.3243 50.5709 30.3994 50.8199 30.583C51.7293 31.1342 52.6489 31.6688 53.5794 32.1873C53.8874 32.4838 53.9195 32.8149 53.6757 33.182C53.1032 34.1343 52.5469 35.0969 52.0072 36.0698C51.8114 36.3028 51.5656 36.3779 51.2692 36.2944L48.0605 34.4334C47.8487 34.1902 47.8166 33.9226 47.9642 33.6312L48.863 32.0905L49.7611 30.5509C49.8349 30.4777 49.9093 30.4135 49.9857 30.3584Z" fill="black"/>
</svg>
