<svg width="121" height="78" viewBox="0 0 121 78" fill="none" xmlns="http://www.w3.org/2000/svg">
<path fill-rule="evenodd" clip-rule="evenodd" d="M5.09177 77.405C5.06929 77.0796 5.09218 76.7583 5.16071 76.4398L9.02163 69.8211C9.56078 69.0461 10.2273 68.9303 11.021 69.4763C12.9748 70.6608 14.9513 71.8094 16.9503 72.9236C17.7434 73.2532 18.0422 73.8281 17.8466 74.6472C17.3528 75.589 16.8243 76.5087 16.2608 77.405C17.6857 77.5884 19.1106 77.5884 20.5354 77.405C33.5219 54.9246 46.5066 32.4485 59.4893 9.9769C59.6968 9.72897 59.7198 9.47608 59.5582 9.2185C58.6027 8.70638 57.6605 8.17785 56.7315 7.63277C55.388 9.62859 54.147 11.6969 53.0085 13.8378C52.5482 14.2264 52.0197 14.3412 51.4227 14.1825L44.804 10.3216C44.1368 9.8812 43.9759 9.30662 44.3214 8.598C45.5118 6.6077 46.6839 4.6083 47.8376 2.59979C46.8407 1.9262 45.8065 1.3057 44.7351 0.738281C44.6286 0.758275 44.5367 0.804193 44.4593 0.876171C29.6916 26.413 14.9604 51.9686 0.265625 77.5429C1.89824 77.7249 3.55292 77.7249 5.22966 77.5429C5.21256 77.4588 5.16664 77.4133 5.09177 77.405ZM42.5978 15.5614C42.0628 15.1667 41.4653 15.0057 40.8052 15.0788C40.627 15.3265 40.4201 15.5563 40.1847 15.7683C38.9786 17.9511 37.7376 20.1113 36.4617 22.2491C36.1708 22.8183 36.2397 23.3468 36.6686 23.8348L43.563 27.8336C44.3127 28.0618 44.8872 27.855 45.2867 27.2131C46.401 25.2141 47.55 23.2376 48.7339 21.2839C49.4425 20.4329 49.3736 19.6746 48.5271 19.0087C46.5281 17.8944 44.5516 16.7454 42.5978 15.5614ZM32.9455 28.7299C33.3797 28.6901 33.7934 28.759 34.1865 28.9367C36.3244 30.2126 38.4845 31.4536 40.6673 32.6598C41.3346 33.1002 41.4955 33.6748 41.15 34.3834L37.1512 41.2779C36.7022 41.5439 36.2196 41.6128 35.7033 41.4847C33.5655 40.2088 31.4053 38.9678 29.2225 37.7617C28.3321 37.225 28.1712 36.5127 28.7399 35.6244C29.9697 33.5785 31.1648 31.5102 32.325 29.4194C32.5134 29.1626 32.7202 28.9329 32.9455 28.7299ZM26.7405 42.8636C26.2456 42.5008 25.694 42.34 25.0858 42.381C24.7566 42.7137 24.4578 43.0815 24.1895 43.4841C23.0293 45.5749 21.8342 47.6433 20.6044 49.6892C20.4054 50.3389 20.5662 50.8674 21.087 51.2749C23.1778 52.4351 25.2462 53.6302 27.292 54.86C28.3328 55.6166 29.1371 55.4098 29.7051 54.2395C30.7071 52.3655 31.7643 50.5268 32.8766 48.7239C33.3055 48.1418 33.4434 47.4982 33.2902 46.7935C31.1412 45.4315 28.958 44.1216 26.7405 42.8636ZM17.2261 56.0321C17.7267 55.9852 18.1863 56.1002 18.605 56.3768C20.7428 57.6527 22.903 58.8937 25.0858 60.0998C25.6132 60.7383 25.6361 61.4057 25.1547 62.0992C24.0425 63.9028 22.9853 65.7409 21.9833 67.6148C21.4466 68.5056 20.7343 68.6656 19.846 68.0975C17.8132 66.8468 15.7449 65.6527 13.6409 64.5123C12.8773 63.907 12.7624 63.1941 13.2962 62.375C14.4084 60.5714 15.4656 58.7335 16.4677 56.8594C16.6552 56.5115 16.908 56.2358 17.2261 56.0321ZM67.0043 13.6999C67.2539 13.6987 67.4841 13.7676 67.6937 13.9068L82.8506 22.6564L98.0295 31.4188C98.1481 31.5138 98.2391 31.6286 98.3053 31.7635C93.9686 39.4955 89.5107 47.1484 84.93 54.7222C83.1595 56.0538 81.2745 56.2377 79.2765 55.2737C71.4388 50.6885 63.5791 46.1381 55.6973 41.6226C53.8397 40.0064 53.3571 38.0531 54.2495 35.7623C58.5376 28.427 62.789 21.0728 67.0043 13.6999ZM119.536 46.9226L118.437 48.8618C117.568 50.4635 116.649 52.0263 115.679 53.5501L111.867 60.1847L111.84 60.2304L111.708 60.4604L111.422 60.959L111.221 61.3086C108.11 66.7219 105 72.1334 101.89 77.5429C95.1559 77.7263 88.3993 77.7263 81.6206 77.5429C81.6372 77.4588 81.684 77.4133 81.7585 77.405C89.7203 63.5512 97.7179 49.7163 105.751 35.9002C106.837 36.511 107.894 37.1546 108.923 37.8306C107.682 39.9244 106.464 42.0386 105.269 44.1736C105.15 44.7875 105.357 45.2701 105.889 45.6214C107.98 46.7816 110.048 47.9767 112.094 49.2065C112.513 49.4832 112.973 49.5982 113.473 49.5513C113.746 49.3255 114.022 49.0957 114.3 48.8618C115.376 46.8022 116.526 44.7797 117.748 42.7947C118.811 43.3712 119.822 44.0147 120.781 44.7251L119.951 46.1908L119.536 46.9226ZM51.0091 50.1028C51.8181 50.5297 52.5993 50.9893 53.3532 51.4817C60.2899 55.456 67.2304 59.4318 74.1746 63.4092C76.4015 64.5702 77.2509 66.3862 76.7255 68.8558C75.2598 71.7929 73.674 74.6665 71.9683 77.474C58.0415 77.5663 44.1146 77.5663 30.1877 77.474C32.2751 73.9192 34.3434 70.3575 36.3928 66.7875C36.6185 66.2883 36.8943 65.8292 37.2201 65.4086C37.8097 64.2696 38.4531 63.1665 39.1506 62.0992C39.2745 61.7007 39.4585 61.3326 39.7021 60.9961C41.5398 57.9653 43.3093 54.8858 45.0109 51.7575C45.2201 51.5176 45.4269 51.2878 45.6314 51.0681C47.1818 49.4556 48.9744 49.1339 51.0091 50.1028ZM102.994 50.4476C102.628 50.379 102.261 50.356 101.89 50.3786C101.726 50.4977 101.566 50.6356 101.408 50.7923C100.145 53.1356 98.8114 55.4338 97.409 57.6868C97.1925 58.3808 97.3994 58.9094 98.0295 59.2725C100.12 60.4322 102.188 61.6277 104.235 62.8576C105.212 63.4492 105.971 63.2424 106.51 62.2371C107.669 60.1467 108.865 58.078 110.095 56.0321C110.419 55.4463 110.35 54.9178 109.888 54.4464L106.443 52.4484L102.994 50.4476ZM94.0307 64.0297C94.6912 63.9566 95.2883 64.1179 95.8233 64.5123C97.7772 65.6968 99.7531 66.8454 101.753 67.9596C102.414 68.5966 102.483 69.3081 101.959 70.0968C100.729 72.1431 99.5339 74.2115 98.3742 76.3019C97.9537 76.8024 97.4255 76.9638 96.7885 76.7845L93.3412 74.7851L89.894 72.7857C89.439 72.2631 89.37 71.6881 89.6872 71.0621C90.3058 70.0012 90.9247 68.9403 91.5437 67.8795L91.5678 67.8382L91.5921 67.7964L91.6168 67.7541C92.2607 66.6505 92.9046 65.5469 93.5481 64.4434C93.7067 64.2862 93.8666 64.1483 94.0307 64.0297Z" fill="white"/>
</svg>
